<?xml version="1.0" encoding="iso-8859-1"?>
<!-- Uploaded to: SVG Repo, www.svgrepo.com, Generator: SVG Repo Mixer Tools -->
<svg height="800px" width="800px" version="1.1" id="Layer_1" xmlns="http://www.w3.org/2000/svg" xmlns:xlink="http://www.w3.org/1999/xlink" 
	 viewBox="0 0 512 512" xml:space="preserve">
<g>
	<path style="fill:#F7B239;" d="M397.694,297.472c0,0,14.534-35.674,44.922-38.316s39.536-6.907,55.492-19.819
		c0,0,17.176,51.528-19.819,75.311C441.295,338.431,397.694,297.472,397.694,297.472z"/>
	<path style="fill:#F7B239;" d="M179.689,152.136c0,0-26.425-15.855-14.534-51.528c7.103-21.309,27.746-40.959,9.249-52.85
		c0,0,51.528,13.212,50.207,52.85S196.215,148.839,179.689,152.136z"/>
</g>
<path style="fill:#333333;" d="M372.59,221.501H227.254c-5.473,0-9.909-4.437-9.909-9.909c0-5.473,4.437-9.909,9.909-9.909H372.59
	c8.743,0,15.855-7.112,15.855-15.855c0-8.743-7.112-15.855-15.855-15.855h-21.8c-5.473,0-9.909-4.437-9.909-9.909
	s4.437-9.909,9.909-9.909h21.8c19.671,0,35.674,16.003,35.674,35.674S392.261,221.501,372.59,221.501z"/>
<path style="fill:#4D4D4D;" d="M175.725,221.501H9.909c-5.473,0-9.909-4.437-9.909-9.909c0-5.473,4.437-9.909,9.909-9.909h165.816
	c5.473,0,9.909,4.437,9.909,9.909C185.635,217.064,181.198,221.501,175.725,221.501z"/>
<path style="fill:#333333;" d="M436.166,474.153h-31.144c-5.473,0-9.909-4.437-9.909-9.909c0-5.473,4.437-9.909,9.909-9.909h31.144
	c14.831,0,26.897-12.066,26.897-26.897c0-14.831-12.066-26.897-26.897-26.897H322.383c-5.473,0-9.909-4.437-9.909-9.909
	c0-5.473,4.437-9.909,9.909-9.909h113.783c25.759,0,46.715,20.956,46.715,46.715C482.881,453.197,461.925,474.153,436.166,474.153z"
	/>
<g>
	<path style="fill:#666666;" d="M288.031,400.54H52.85c-5.473,0-9.909-4.437-9.909-9.909s4.437-9.909,9.909-9.909h235.181
		c5.473,0,9.909,4.437,9.909,9.909S293.503,400.54,288.031,400.54z"/>
	<path style="fill:#666666;" d="M321.062,344.376H208.756c-5.473,0-9.909-4.437-9.909-9.909c0-5.473,4.437-9.909,9.909-9.909
		h112.306c5.473,0,9.909,4.437,9.909,9.909C330.971,339.94,326.535,344.376,321.062,344.376z"/>
</g>
<path style="fill:#333333;" d="M174.404,344.376H77.953c-5.473,0-9.909-4.437-9.909-9.909c0-5.473,4.437-9.909,9.909-9.909h96.451
	c5.473,0,9.909,4.437,9.909,9.909C184.313,339.94,179.877,344.376,174.404,344.376z"/>
<path style="fill:#666666;" d="M459.792,180.986c-5.473,0-9.909-4.437-9.909-9.909c0-31.936-25.982-57.918-57.918-57.918h-74.867
	c-5.473,0-9.909-4.437-9.909-9.909c0-5.473,4.437-9.909,9.909-9.909h74.867c42.864,0,77.737,34.873,77.737,77.737
	C469.702,176.55,465.265,180.986,459.792,180.986z"/>
<path style="fill:#333333;" d="M340.881,283.599H145.337c-5.473,0-9.909-4.437-9.909-9.909c0-5.473,4.437-9.909,9.909-9.909h195.544
	c5.473,0,9.909,4.437,9.909,9.909C350.79,279.163,346.353,283.599,340.881,283.599z"/>
<path style="fill:#666666;" d="M84.56,283.599H35.674c-5.473,0-9.909-4.437-9.909-9.909c0-5.473,4.437-9.909,9.909-9.909H84.56
	c5.473,0,9.909,4.437,9.909,9.909C94.469,279.163,90.032,283.599,84.56,283.599z"/>
<g>
	<path style="fill:#333333;" d="M507.509,236.204c-1.028-3.082-3.501-5.466-6.621-6.378c-3.118-0.912-6.486-0.235-9.013,1.807
		c-13.909,11.254-20.864,15.107-50.117,17.65c-36.008,3.131-52.554,42.763-53.241,44.449c-1.546,3.797-0.596,8.153,2.393,10.961
		c0.493,0.462,12.245,11.413,29.009,19.258c11.439,5.355,22.519,8.029,32.97,8.029c11.068,0,21.431-3.001,30.76-8.999
		c18.03-11.591,27.827-30.507,28.331-54.703C512.341,250.912,507.707,236.797,507.509,236.204z M472.931,306.313
		c-12.183,7.832-27.051,7.794-44.188-0.112c-2.454-1.132-4.772-2.357-6.958-3.604c10.549-1.735,22.203-2.96,30.09-1.908
		c5.418,0.727,10.409-3.088,11.131-8.513s-3.088-10.409-8.513-11.131c-10.386-1.386-24.216,0.073-35.914,1.994
		c6.042-6.791,14.374-13.095,24.894-14.009c23.937-2.081,36.3-5.446,48.159-12.764C493.5,270.939,492.583,293.679,472.931,306.313z"
		/>
	<path style="fill:#333333;" d="M174.59,160.633c1.551,0.93,3.315,1.412,5.099,1.412c0.646,0,1.296-0.063,1.938-0.192
		c33.972-6.777,51.766-27.272,52.887-60.916c0.662-19.866-9.406-37.132-29.115-49.93c-13.919-9.039-27.944-12.697-28.535-12.849
		c-4.713-1.206-9.601,1.181-11.545,5.639c-1.944,4.458-0.365,9.666,3.725,12.295c3.731,2.399,5.434,3.495-4.279,21.801
		c-3.131,5.898-6.679,12.584-9.011,19.581C144.36,131.656,163.093,153.734,174.59,160.633z M174.556,103.74
		c1.81-5.432,4.812-11.088,7.715-16.558c3.925-7.398,7.645-14.403,9.007-21.567c11.59,6.709,23.99,17.85,23.43,34.66
		c-0.678,20.342-8.838,30.645-19.392,36.316l6.987-20.962c1.731-5.192-1.075-10.804-6.268-12.535
		c-5.19-1.729-10.804,1.076-12.535,6.268l-7.916,23.747C171.166,124.832,170.816,114.964,174.556,103.74z"/>
</g>
</svg>